<?xml version="1.0" encoding="UTF-8" standalone="no"?><svg xmlns="http://www.w3.org/2000/svg" xmlns:xlink="http://www.w3.org/1999/xlink" contentScriptType="application/ecmascript" contentStyleType="text/css" height="1450px" preserveAspectRatio="none" style="width:678px;height:1450px;background:#FFFFFF;" version="1.1" viewBox="0 0 678 1450" width="678px" zoomAndPan="magnify"><defs><filter height="300%" id="frkrin0a149cm" width="300%" x="-1" y="-1"><feGaussianBlur result="blurOut" stdDeviation="2.0"/><feColorMatrix in="blurOut" result="blurOut2" type="matrix" values="0 0 0 0 0 0 0 0 0 0 0 0 0 0 0 0 0 0 .4 0"/><feOffset dx="4.0" dy="4.0" in="blurOut2" result="blurOut3"/><feBlend in="SourceGraphic" in2="blurOut3" mode="normal"/></filter></defs><g><!--MD5=[b2ebbe2493067692ab69b2e15c86c012]
cluster com.Slattery.Travis--><polygon fill="#FFFFFF" filter="url(#frkrin0a149cm)" points="16,130,155,130,162,153.6094,661,153.6094,661,1443,16,1443,16,130" style="stroke:#000000;stroke-width:1.5;"/><line style="stroke:#000000;stroke-width:1.5;" x1="16" x2="162" y1="153.6094" y2="153.6094"/><text fill="#000000" font-family="sans-serif" font-size="14" font-weight="bold" lengthAdjust="spacing" textLength="133" x="20" y="146.5332">com.Slattery.Travis</text><!--MD5=[0d852700fdad35b7061d461d6907a324]
cluster java.io--><polygon fill="#FFFFFF" filter="url(#frkrin0a149cm)" points="149,6,201,6,208,29.6094,277,29.6094,277,106,149,106,149,6" style="stroke:#000000;stroke-width:1.5;"/><line style="stroke:#000000;stroke-width:1.5;" x1="149" x2="208" y1="29.6094" y2="29.6094"/><text fill="#000000" font-family="sans-serif" font-size="14" font-weight="bold" lengthAdjust="spacing" textLength="46" x="153" y="22.5332">java.io</text><!--MD5=[d9291b5689a08b5278452770f90e6c06]
class com.Slattery.Travis.CardArray--><rect codeLine="2" fill="#FEFECE" filter="url(#frkrin0a149cm)" height="48" id="com.Slattery.Travis.CardArray" style="stroke:#A80036;stroke-width:1.5;" width="86" x="247" y="1365"/><ellipse cx="262" cy="1381" fill="#ADD1B2" rx="11" ry="11" style="stroke:#A80036;stroke-width:1.0;"/><path d="M264,1377.5 Q264.2031,1377 264.4375,1376.75 Q264.6719,1376.5 264.9375,1376.5 Q265.4063,1376.5 265.7031,1376.7813 Q266,1377.0625 266,1377.7188 L266,1379.2813 Q266,1379.9375 265.7188,1380.2188 Q265.4375,1380.5 265,1380.5 Q264.6094,1380.5 264.3594,1380.3281 Q264.1094,1380.1563 264,1379.7031 Q263.9531,1379.3906 263.7813,1379.2188 Q263.4688,1378.8906 262.9063,1378.7031 Q262.3438,1378.5 261.7813,1378.5 Q261.0781,1378.5 260.4844,1378.7813 Q259.9063,1379.0625 259.4531,1379.6875 Q259,1380.3125 259,1381.1719 L259,1382.0938 Q259,1383.125 259.8438,1383.8125 Q260.6875,1384.5 262.1875,1384.5 Q263.0781,1384.5 263.7031,1384.2969 Q264.0625,1384.1875 264.4688,1383.8281 Q264.7344,1383.625 264.875,1383.5625 Q265.0156,1383.5 265.1875,1383.5 Q265.5156,1383.5 265.75,1383.7656 Q266,1384.0156 266,1384.375 Q266,1384.7188 265.6563,1385.125 Q265.1563,1385.7188 264.3594,1386.0469 Q263.3125,1386.5 262.0313,1386.5 Q260.5313,1386.5 259.3281,1385.9063 Q258.3594,1385.4375 257.6719,1384.4219 Q257,1383.4063 257,1382.2031 L257,1381.1094 Q257,1379.8594 257.5938,1378.7656 Q258.2031,1377.6719 259.25,1377.0938 Q260.3125,1376.5 261.5,1376.5 Q262.2188,1376.5 262.8438,1376.75 Q263.4688,1377 264,1377.5 Z " fill="#000000"/><text fill="#000000" font-family="sans-serif" font-size="12" lengthAdjust="spacing" textLength="54" x="276" y="1385.9102">CardArray</text><line style="stroke:#A80036;stroke-width:1.5;" x1="248" x2="332" y1="1397" y2="1397"/><line style="stroke:#A80036;stroke-width:1.5;" x1="248" x2="332" y1="1405" y2="1405"/><!--MD5=[3d7807c8a82947a58e5c15f3ccf6a3d3]
class com.Slattery.Travis.Main--><rect codeLine="4" fill="#FEFECE" filter="url(#frkrin0a149cm)" height="75.6719" id="com.Slattery.Travis.Main" style="stroke:#A80036;stroke-width:1.5;" width="105" x="320.5" y="581"/><ellipse cx="356.65" cy="597" fill="#ADD1B2" rx="11" ry="11" style="stroke:#A80036;stroke-width:1.0;"/><path d="M358.65,593.5 Q358.8531,593 359.0875,592.75 Q359.3219,592.5 359.5875,592.5 Q360.0563,592.5 360.3531,592.7813 Q360.65,593.0625 360.65,593.7188 L360.65,595.2813 Q360.65,595.9375 360.3688,596.2188 Q360.0875,596.5 359.65,596.5 Q359.2594,596.5 359.0094,596.3281 Q358.7594,596.1563 358.65,595.7031 Q358.6031,595.3906 358.4313,595.2188 Q358.1188,594.8906 357.5563,594.7031 Q356.9938,594.5 356.4313,594.5 Q355.7281,594.5 355.1344,594.7813 Q354.5563,595.0625 354.1031,595.6875 Q353.65,596.3125 353.65,597.1719 L353.65,598.0938 Q353.65,599.125 354.4938,599.8125 Q355.3375,600.5 356.8375,600.5 Q357.7281,600.5 358.3531,600.2969 Q358.7125,600.1875 359.1188,599.8281 Q359.3844,599.625 359.525,599.5625 Q359.6656,599.5 359.8375,599.5 Q360.1656,599.5 360.4,599.7656 Q360.65,600.0156 360.65,600.375 Q360.65,600.7188 360.3063,601.125 Q359.8063,601.7188 359.0094,602.0469 Q357.9625,602.5 356.6813,602.5 Q355.1813,602.5 353.9781,601.9063 Q353.0094,601.4375 352.3219,600.4219 Q351.65,599.4063 351.65,598.2031 L351.65,597.1094 Q351.65,595.8594 352.2438,594.7656 Q352.8531,593.6719 353.9,593.0938 Q354.9625,592.5 356.15,592.5 Q356.8688,592.5 357.4938,592.75 Q358.1188,593 358.65,593.5 Z " fill="#000000"/><text fill="#000000" font-family="sans-serif" font-size="12" lengthAdjust="spacing" textLength="26" x="375.35" y="601.9102">Main</text><line style="stroke:#A80036;stroke-width:1.5;" x1="321.5" x2="424.5" y1="613" y2="613"/><line style="stroke:#A80036;stroke-width:1.5;" x1="321.5" x2="424.5" y1="621" y2="621"/><text fill="#000000" font-family="sans-serif" font-size="11" lengthAdjust="spacing" text-decoration="underline" textLength="93" x="326.5" y="636.4189">+void main(String[])</text><text fill="#000000" font-family="sans-serif" font-size="11" lengthAdjust="spacing" textLength="84" x="326.5" y="650.2549">+void setVisible()</text><!--MD5=[864a2276d3fe9885b37edb5757f80baa]
class com.Slattery.Travis.GameWindow--><rect codeLine="8" fill="#FEFECE" filter="url(#frkrin0a149cm)" height="61.8359" id="com.Slattery.Travis.GameWindow" style="stroke:#A80036;stroke-width:1.5;" width="110" x="41" y="1180.5"/><ellipse cx="56" cy="1196.5" fill="#ADD1B2" rx="11" ry="11" style="stroke:#A80036;stroke-width:1.0;"/><path d="M58,1193 Q58.2031,1192.5 58.4375,1192.25 Q58.6719,1192 58.9375,1192 Q59.4063,1192 59.7031,1192.2813 Q60,1192.5625 60,1193.2188 L60,1194.7813 Q60,1195.4375 59.7188,1195.7188 Q59.4375,1196 59,1196 Q58.6094,1196 58.3594,1195.8281 Q58.1094,1195.6563 58,1195.2031 Q57.9531,1194.8906 57.7813,1194.7188 Q57.4688,1194.3906 56.9063,1194.2031 Q56.3438,1194 55.7813,1194 Q55.0781,1194 54.4844,1194.2813 Q53.9063,1194.5625 53.4531,1195.1875 Q53,1195.8125 53,1196.6719 L53,1197.5938 Q53,1198.625 53.8438,1199.3125 Q54.6875,1200 56.1875,1200 Q57.0781,1200 57.7031,1199.7969 Q58.0625,1199.6875 58.4688,1199.3281 Q58.7344,1199.125 58.875,1199.0625 Q59.0156,1199 59.1875,1199 Q59.5156,1199 59.75,1199.2656 Q60,1199.5156 60,1199.875 Q60,1200.2188 59.6563,1200.625 Q59.1563,1201.2188 58.3594,1201.5469 Q57.3125,1202 56.0313,1202 Q54.5313,1202 53.3281,1201.4063 Q52.3594,1200.9375 51.6719,1199.9219 Q51,1198.9063 51,1197.7031 L51,1196.6094 Q51,1195.3594 51.5938,1194.2656 Q52.2031,1193.1719 53.25,1192.5938 Q54.3125,1192 55.5,1192 Q56.2188,1192 56.8438,1192.25 Q57.4688,1192.5 58,1193 Z " fill="#000000"/><text fill="#000000" font-family="sans-serif" font-size="12" lengthAdjust="spacing" textLength="78" x="70" y="1201.4102">GameWindow</text><line style="stroke:#A80036;stroke-width:1.5;" x1="42" x2="150" y1="1212.5" y2="1212.5"/><text fill="#000000" font-family="sans-serif" font-size="11" lengthAdjust="spacing" textLength="97" x="47" y="1227.9189">-JPanel backGround</text><line style="stroke:#A80036;stroke-width:1.5;" x1="42" x2="150" y1="1234.3359" y2="1234.3359"/><!--MD5=[de58383fa32ddba8d4b957d4899c27bc]
class com.Slattery.Travis.GameWindow.ImagePanel--><rect codeLine="11" fill="#FEFECE" filter="url(#frkrin0a149cm)" height="75.6719" id="com.Slattery.Travis.GameWindow.ImagePanel" style="stroke:#A80036;stroke-width:1.5;" width="180" x="32" y="1351"/><ellipse cx="47" cy="1367" fill="#ADD1B2" rx="11" ry="11" style="stroke:#A80036;stroke-width:1.0;"/><path d="M49,1363.5 Q49.2031,1363 49.4375,1362.75 Q49.6719,1362.5 49.9375,1362.5 Q50.4063,1362.5 50.7031,1362.7813 Q51,1363.0625 51,1363.7188 L51,1365.2813 Q51,1365.9375 50.7188,1366.2188 Q50.4375,1366.5 50,1366.5 Q49.6094,1366.5 49.3594,1366.3281 Q49.1094,1366.1563 49,1365.7031 Q48.9531,1365.3906 48.7813,1365.2188 Q48.4688,1364.8906 47.9063,1364.7031 Q47.3438,1364.5 46.7813,1364.5 Q46.0781,1364.5 45.4844,1364.7813 Q44.9063,1365.0625 44.4531,1365.6875 Q44,1366.3125 44,1367.1719 L44,1368.0938 Q44,1369.125 44.8438,1369.8125 Q45.6875,1370.5 47.1875,1370.5 Q48.0781,1370.5 48.7031,1370.2969 Q49.0625,1370.1875 49.4688,1369.8281 Q49.7344,1369.625 49.875,1369.5625 Q50.0156,1369.5 50.1875,1369.5 Q50.5156,1369.5 50.75,1369.7656 Q51,1370.0156 51,1370.375 Q51,1370.7188 50.6563,1371.125 Q50.1563,1371.7188 49.3594,1372.0469 Q48.3125,1372.5 47.0313,1372.5 Q45.5313,1372.5 44.3281,1371.9063 Q43.3594,1371.4375 42.6719,1370.4219 Q42,1369.4063 42,1368.2031 L42,1367.1094 Q42,1365.8594 42.5938,1364.7656 Q43.2031,1363.6719 44.25,1363.0938 Q45.3125,1362.5 46.5,1362.5 Q47.2188,1362.5 47.8438,1362.75 Q48.4688,1363 49,1363.5 Z " fill="#000000"/><text fill="#000000" font-family="sans-serif" font-size="12" lengthAdjust="spacing" textLength="148" x="61" y="1371.9102">GameWindow.ImagePanel</text><line style="stroke:#A80036;stroke-width:1.5;" x1="33" x2="211" y1="1383" y2="1383"/><text fill="#000000" font-family="sans-serif" font-size="11" lengthAdjust="spacing" textLength="51" x="38" y="1398.4189">-Image img</text><line style="stroke:#A80036;stroke-width:1.5;" x1="33" x2="211" y1="1404.8359" y2="1404.8359"/><text fill="#000000" font-family="sans-serif" font-size="11" lengthAdjust="spacing" textLength="158" x="38" y="1420.2549">+void paintComponent(Graphics)</text><!--MD5=[bd7ef509b6f5c20245dd016e76adf5d1]
class com.Slattery.Travis.Player--><rect codeLine="15" fill="#FEFECE" filter="url(#frkrin0a149cm)" height="283.2109" id="com.Slattery.Travis.Player" style="stroke:#A80036;stroke-width:1.5;" width="144" x="141" y="477.5"/><ellipse cx="191.75" cy="493.5" fill="#ADD1B2" rx="11" ry="11" style="stroke:#A80036;stroke-width:1.0;"/><path d="M193.75,490 Q193.9531,489.5 194.1875,489.25 Q194.4219,489 194.6875,489 Q195.1563,489 195.4531,489.2813 Q195.75,489.5625 195.75,490.2188 L195.75,491.7813 Q195.75,492.4375 195.4688,492.7188 Q195.1875,493 194.75,493 Q194.3594,493 194.1094,492.8281 Q193.8594,492.6563 193.75,492.2031 Q193.7031,491.8906 193.5313,491.7188 Q193.2188,491.3906 192.6563,491.2031 Q192.0938,491 191.5313,491 Q190.8281,491 190.2344,491.2813 Q189.6563,491.5625 189.2031,492.1875 Q188.75,492.8125 188.75,493.6719 L188.75,494.5938 Q188.75,495.625 189.5938,496.3125 Q190.4375,497 191.9375,497 Q192.8281,497 193.4531,496.7969 Q193.8125,496.6875 194.2188,496.3281 Q194.4844,496.125 194.625,496.0625 Q194.7656,496 194.9375,496 Q195.2656,496 195.5,496.2656 Q195.75,496.5156 195.75,496.875 Q195.75,497.2188 195.4063,497.625 Q194.9063,498.2188 194.1094,498.5469 Q193.0625,499 191.7813,499 Q190.2813,499 189.0781,498.4063 Q188.1094,497.9375 187.4219,496.9219 Q186.75,495.9063 186.75,494.7031 L186.75,493.6094 Q186.75,492.3594 187.3438,491.2656 Q187.9531,490.1719 189,489.5938 Q190.0625,489 191.25,489 Q191.9688,489 192.5938,489.25 Q193.2188,489.5 193.75,490 Z " fill="#000000"/><text fill="#000000" font-family="sans-serif" font-size="12" lengthAdjust="spacing" textLength="34" x="212.25" y="498.4102">Player</text><line style="stroke:#A80036;stroke-width:1.5;" x1="142" x2="284" y1="509.5" y2="509.5"/><text fill="#000000" font-family="sans-serif" font-size="11" lengthAdjust="spacing" textLength="132" x="147" y="524.9189">~ArrayList&lt;Player&gt; players</text><text fill="#000000" font-family="sans-serif" font-size="11" lengthAdjust="spacing" textLength="83" x="147" y="538.7549">-String username</text><text fill="#000000" font-family="sans-serif" font-size="11" lengthAdjust="spacing" textLength="77" x="147" y="552.5908">-double balance</text><text fill="#000000" font-family="sans-serif" font-size="11" lengthAdjust="spacing" textLength="71" x="147" y="566.4268">-int wonHands</text><line style="stroke:#A80036;stroke-width:1.5;" x1="142" x2="284" y1="572.8438" y2="572.8438"/><text fill="#000000" font-family="sans-serif" font-size="11" lengthAdjust="spacing" textLength="129" x="147" y="588.2627">+void setUsername(String)</text><text fill="#000000" font-family="sans-serif" font-size="11" lengthAdjust="spacing" textLength="87" x="147" y="602.0986">~String getName()</text><text fill="#000000" font-family="sans-serif" font-size="11" lengthAdjust="spacing" textLength="110" x="147" y="615.9346">~String getPassword()</text><text fill="#000000" font-family="sans-serif" font-size="11" lengthAdjust="spacing" textLength="130" x="147" y="629.7705">+void setPassword(String)</text><text fill="#000000" font-family="sans-serif" font-size="11" lengthAdjust="spacing" textLength="103" x="147" y="643.6064">~double getBalance()</text><text fill="#000000" font-family="sans-serif" font-size="11" lengthAdjust="spacing" textLength="123" x="147" y="657.4424">~void setBalance(double)</text><text fill="#000000" font-family="sans-serif" font-size="11" lengthAdjust="spacing" textLength="96" x="147" y="671.2783">~int getWonHands()</text><text fill="#000000" font-family="sans-serif" font-size="11" lengthAdjust="spacing" textLength="116" x="147" y="685.1143">~void setWonHands(int)</text><text fill="#000000" font-family="sans-serif" font-size="11" lengthAdjust="spacing" textLength="88" x="147" y="698.9502">~int getTieHands()</text><text fill="#000000" font-family="sans-serif" font-size="11" lengthAdjust="spacing" textLength="108" x="147" y="712.7861">~void setTieHands(int)</text><text fill="#000000" font-family="sans-serif" font-size="11" lengthAdjust="spacing" textLength="106" x="147" y="726.6221">~int getHandsplayed()</text><text fill="#000000" font-family="sans-serif" font-size="11" lengthAdjust="spacing" textLength="126" x="147" y="740.458">~void setHandsplayed(int)</text><text fill="#000000" font-family="sans-serif" font-size="11" lengthAdjust="spacing" textLength="82" x="147" y="754.2939">+String toString()</text><!--MD5=[156dacb443667461b1911f3e4449d69d]
class com.Slattery.Travis.BlackJackGUI--><rect codeLine="34" fill="#FEFECE" filter="url(#frkrin0a149cm)" height="905.8281" id="com.Slattery.Travis.BlackJackGUI" style="stroke:#A80036;stroke-width:1.5;" width="184" x="461" y="166"/><ellipse cx="510.75" cy="182" fill="#ADD1B2" rx="11" ry="11" style="stroke:#A80036;stroke-width:1.0;"/><path d="M512.75,178.5 Q512.9531,178 513.1875,177.75 Q513.4219,177.5 513.6875,177.5 Q514.1563,177.5 514.4531,177.7813 Q514.75,178.0625 514.75,178.7188 L514.75,180.2813 Q514.75,180.9375 514.4688,181.2188 Q514.1875,181.5 513.75,181.5 Q513.3594,181.5 513.1094,181.3281 Q512.8594,181.1563 512.75,180.7031 Q512.7031,180.3906 512.5313,180.2188 Q512.2188,179.8906 511.6563,179.7031 Q511.0938,179.5 510.5313,179.5 Q509.8281,179.5 509.2344,179.7813 Q508.6563,180.0625 508.2031,180.6875 Q507.75,181.3125 507.75,182.1719 L507.75,183.0938 Q507.75,184.125 508.5938,184.8125 Q509.4375,185.5 510.9375,185.5 Q511.8281,185.5 512.4531,185.2969 Q512.8125,185.1875 513.2188,184.8281 Q513.4844,184.625 513.625,184.5625 Q513.7656,184.5 513.9375,184.5 Q514.2656,184.5 514.5,184.7656 Q514.75,185.0156 514.75,185.375 Q514.75,185.7188 514.4063,186.125 Q513.9063,186.7188 513.1094,187.0469 Q512.0625,187.5 510.7813,187.5 Q509.2813,187.5 508.0781,186.9063 Q507.1094,186.4375 506.4219,185.4219 Q505.75,184.4063 505.75,183.2031 L505.75,182.1094 Q505.75,180.8594 506.3438,179.7656 Q506.9531,178.6719 508,178.0938 Q509.0625,177.5 510.25,177.5 Q510.9688,177.5 511.5938,177.75 Q512.2188,178 512.75,178.5 Z " fill="#000000"/><text fill="#000000" font-family="sans-serif" font-size="12" lengthAdjust="spacing" textLength="76" x="531.25" y="186.9102">BlackJackGUI</text><line style="stroke:#A80036;stroke-width:1.5;" x1="462" x2="644" y1="198" y2="198"/><text fill="#000000" font-family="sans-serif" font-size="11" lengthAdjust="spacing" text-decoration="underline" textLength="72" x="467" y="213.4189">~JFrame frame</text><text fill="#000000" font-family="sans-serif" font-size="11" lengthAdjust="spacing" text-decoration="underline" textLength="56" x="467" y="227.2549">+Deck deck</text><text fill="#000000" font-family="sans-serif" font-size="11" lengthAdjust="spacing" text-decoration="underline" textLength="92" x="467" y="241.0908">+Deck dealerCards</text><text fill="#000000" font-family="sans-serif" font-size="11" lengthAdjust="spacing" text-decoration="underline" textLength="92" x="467" y="254.9268">+Deck playerCards</text><text fill="#000000" font-family="sans-serif" font-size="11" lengthAdjust="spacing" text-decoration="underline" textLength="137" x="467" y="268.7627">-CardArray dealerCardPanel</text><text fill="#000000" font-family="sans-serif" font-size="11" lengthAdjust="spacing" text-decoration="underline" textLength="116" x="467" y="282.5986">-Card dealerHiddenCard</text><text fill="#000000" font-family="sans-serif" font-size="11" lengthAdjust="spacing" text-decoration="underline" textLength="79" x="467" y="296.4346">+double balance</text><text fill="#000000" font-family="sans-serif" font-size="11" lengthAdjust="spacing" text-decoration="underline" textLength="84" x="467" y="310.2705">-double sBalance</text><text fill="#000000" font-family="sans-serif" font-size="11" lengthAdjust="spacing" text-decoration="underline" textLength="72" x="467" y="324.1064">+int betAmount</text><text fill="#000000" font-family="sans-serif" font-size="11" lengthAdjust="spacing" text-decoration="underline" textLength="74" x="467" y="337.9424">-int roundCount</text><text fill="#000000" font-family="sans-serif" font-size="11" lengthAdjust="spacing" text-decoration="underline" textLength="73" x="467" y="351.7783">+int wonHands</text><text fill="#000000" font-family="sans-serif" font-size="11" lengthAdjust="spacing" text-decoration="underline" textLength="62" x="467" y="365.6143">+int tieHands</text><text fill="#000000" font-family="sans-serif" font-size="11" lengthAdjust="spacing" text-decoration="underline" textLength="80" x="467" y="379.4502">-int handsplayed</text><text fill="#000000" font-family="sans-serif" font-size="11" lengthAdjust="spacing" text-decoration="underline" textLength="69" x="467" y="393.2861">+String pname</text><text fill="#000000" font-family="sans-serif" font-size="11" lengthAdjust="spacing" text-decoration="underline" textLength="115" x="467" y="407.1221">-JTextField balanceField</text><text fill="#000000" font-family="sans-serif" font-size="11" lengthAdjust="spacing" text-decoration="underline" textLength="96" x="467" y="420.958">-JButton startButton</text><text fill="#000000" font-family="sans-serif" font-size="11" lengthAdjust="spacing" text-decoration="underline" textLength="92" x="467" y="434.7939">-JButton endButton</text><text fill="#000000" font-family="sans-serif" font-size="11" lengthAdjust="spacing" text-decoration="underline" textLength="131" x="467" y="448.6299">+JTextField betAmountField</text><text fill="#000000" font-family="sans-serif" font-size="11" lengthAdjust="spacing" text-decoration="underline" textLength="94" x="467" y="462.4658">-JButton dealButton</text><text fill="#000000" font-family="sans-serif" font-size="11" lengthAdjust="spacing" text-decoration="underline" textLength="104" x="467" y="476.3018">+JLabel balanceLabel</text><text fill="#000000" font-family="sans-serif" font-size="11" lengthAdjust="spacing" text-decoration="underline" textLength="70" x="467" y="490.1377">-JLabel dLabel</text><text fill="#000000" font-family="sans-serif" font-size="11" lengthAdjust="spacing" text-decoration="underline" textLength="70" x="467" y="503.9736">-JLabel pLabel</text><text fill="#000000" font-family="sans-serif" font-size="11" lengthAdjust="spacing" text-decoration="underline" textLength="85" x="467" y="517.8096">-JButton hitButton</text><text fill="#000000" font-family="sans-serif" font-size="11" lengthAdjust="spacing" text-decoration="underline" textLength="95" x="467" y="531.6455">-JButton stayButton</text><text fill="#000000" font-family="sans-serif" font-size="11" lengthAdjust="spacing" text-decoration="underline" textLength="88" x="467" y="545.4814">-JButton dblButton</text><text fill="#000000" font-family="sans-serif" font-size="11" lengthAdjust="spacing" text-decoration="underline" textLength="89" x="467" y="559.3174">-JLabel amountBet</text><text fill="#000000" font-family="sans-serif" font-size="11" lengthAdjust="spacing" text-decoration="underline" textLength="96" x="467" y="573.1533">-JButton loginButton</text><text fill="#000000" font-family="sans-serif" font-size="11" lengthAdjust="spacing" text-decoration="underline" textLength="98" x="467" y="586.9893">-JButton saveButton</text><text fill="#000000" font-family="sans-serif" font-size="11" lengthAdjust="spacing" text-decoration="underline" textLength="125" x="467" y="600.8252">-JTextField usernameField</text><text fill="#000000" font-family="sans-serif" font-size="11" lengthAdjust="spacing" text-decoration="underline" textLength="127" x="467" y="614.6611">-JTextField passwordField</text><text fill="#000000" font-family="sans-serif" font-size="11" lengthAdjust="spacing" text-decoration="underline" textLength="126" x="467" y="628.4971">-JLabel lblBetAmountDesc</text><text fill="#000000" font-family="sans-serif" font-size="11" lengthAdjust="spacing" text-decoration="underline" textLength="84" x="467" y="642.333">+JLabel gameInfo</text><text fill="#000000" font-family="sans-serif" font-size="11" lengthAdjust="spacing" text-decoration="underline" textLength="115" x="467" y="656.1689">-JButton continueButton</text><text fill="#000000" font-family="sans-serif" font-size="11" lengthAdjust="spacing" text-decoration="underline" textLength="90" x="467" y="670.0049">-JLabel shuffleInfo</text><text fill="#000000" font-family="sans-serif" font-size="11" lengthAdjust="spacing" text-decoration="underline" textLength="80" x="467" y="683.8408">-JLabel statsInfo</text><text fill="#000000" font-family="sans-serif" font-size="11" lengthAdjust="spacing" text-decoration="underline" textLength="101" x="467" y="697.6768">-JLabel newUserInfo</text><text fill="#000000" font-family="sans-serif" font-size="11" lengthAdjust="spacing" text-decoration="underline" textLength="98" x="467" y="711.5127">-JButton statsButton</text><text fill="#000000" font-family="sans-serif" font-size="11" lengthAdjust="spacing" text-decoration="underline" textLength="103" x="467" y="725.3486">-JButton returnButton</text><text fill="#000000" font-family="sans-serif" font-size="11" lengthAdjust="spacing" text-decoration="underline" textLength="37" x="467" y="739.1846">-File file</text><text fill="#000000" font-family="sans-serif" font-size="11" lengthAdjust="spacing" text-decoration="underline" textLength="130" x="467" y="753.0205">-ArrayList&lt;Player&gt; players</text><text fill="#000000" font-family="sans-serif" font-size="11" lengthAdjust="spacing" textLength="147" x="467" y="766.8564">-GameTemplate gameTemplate</text><line style="stroke:#A80036;stroke-width:1.5;" x1="462" x2="644" y1="773.2734" y2="773.2734"/><text fill="#000000" font-family="sans-serif" font-size="11" lengthAdjust="spacing" text-decoration="underline" textLength="79" x="467" y="788.6924">+double getBal()</text><text fill="#000000" font-family="sans-serif" font-size="11" lengthAdjust="spacing" text-decoration="underline" textLength="117" x="467" y="802.5283">+double getBetAmount()</text><text fill="#000000" font-family="sans-serif" font-size="11" lengthAdjust="spacing" textLength="85" x="467" y="816.3643">+void loadGame()</text><text fill="#000000" font-family="sans-serif" font-size="11" lengthAdjust="spacing" text-decoration="underline" textLength="140" x="467" y="830.2002">-boolean validAmount(String)</text><text fill="#000000" font-family="sans-serif" font-size="11" lengthAdjust="spacing" textLength="108" x="467" y="844.0361">-void loadGuiObjects()</text><text fill="#000000" font-family="sans-serif" font-size="11" lengthAdjust="spacing" textLength="95" x="467" y="857.8721">-void showBetGui()</text><text fill="#000000" font-family="sans-serif" font-size="11" lengthAdjust="spacing" textLength="55" x="467" y="871.708">-void deal()</text><text fill="#000000" font-family="sans-serif" font-size="11" lengthAdjust="spacing" textLength="46" x="467" y="885.5439">-void hit()</text><text fill="#000000" font-family="sans-serif" font-size="11" lengthAdjust="spacing" textLength="65" x="467" y="899.3799">-void dblBet()</text><text fill="#000000" font-family="sans-serif" font-size="11" lengthAdjust="spacing" textLength="62" x="467" y="913.2158">-void stand()</text><text fill="#000000" font-family="sans-serif" font-size="11" lengthAdjust="spacing" textLength="128" x="467" y="927.0518">-boolean gameOutcomes()</text><text fill="#000000" font-family="sans-serif" font-size="11" lengthAdjust="spacing" text-decoration="underline" textLength="85" x="467" y="940.8877">-void gameOver()</text><text fill="#000000" font-family="sans-serif" font-size="11" lengthAdjust="spacing" textLength="106" x="467" y="954.7236">+void continueGame()</text><text fill="#000000" font-family="sans-serif" font-size="11" lengthAdjust="spacing" textLength="85" x="467" y="968.5596">-void newGame()</text><text fill="#000000" font-family="sans-serif" font-size="11" lengthAdjust="spacing" text-decoration="underline" textLength="123" x="467" y="982.3955">-void updateCardPanels()</text><text fill="#000000" font-family="sans-serif" font-size="11" lengthAdjust="spacing" text-decoration="underline" textLength="119" x="467" y="996.2314">+int heightFromWidth(int)</text><text fill="#000000" font-family="sans-serif" font-size="11" lengthAdjust="spacing" text-decoration="underline" textLength="172" x="467" y="1010.0674">-void actionPerformed(ActionEvent)</text><text fill="#000000" font-family="sans-serif" font-size="11" lengthAdjust="spacing" text-decoration="underline" textLength="59" x="467" y="1023.9033">-void stats()</text><text fill="#000000" font-family="sans-serif" font-size="11" lengthAdjust="spacing" text-decoration="underline" textLength="96" x="467" y="1037.7393">-void removeStats()</text><text fill="#000000" font-family="sans-serif" font-size="11" lengthAdjust="spacing" text-decoration="underline" textLength="91" x="467" y="1051.5752">-void saveFile(File)</text><text fill="#000000" font-family="sans-serif" font-size="11" lengthAdjust="spacing" text-decoration="underline" textLength="87" x="467" y="1065.4111">-void loadFile(File)</text><!--MD5=[3f0c38f1771508b5d2f7b5d62938fd8f]
class com.Slattery.Travis.Card--><rect codeLine="98" fill="#FEFECE" filter="url(#frkrin0a149cm)" height="103.3438" id="com.Slattery.Travis.Card" style="stroke:#A80036;stroke-width:1.5;" width="115" x="315.5" y="1160"/><ellipse cx="355.7" cy="1176" fill="#ADD1B2" rx="11" ry="11" style="stroke:#A80036;stroke-width:1.0;"/><path d="M357.7,1172.5 Q357.9031,1172 358.1375,1171.75 Q358.3719,1171.5 358.6375,1171.5 Q359.1063,1171.5 359.4031,1171.7813 Q359.7,1172.0625 359.7,1172.7188 L359.7,1174.2813 Q359.7,1174.9375 359.4188,1175.2188 Q359.1375,1175.5 358.7,1175.5 Q358.3094,1175.5 358.0594,1175.3281 Q357.8094,1175.1563 357.7,1174.7031 Q357.6531,1174.3906 357.4813,1174.2188 Q357.1688,1173.8906 356.6063,1173.7031 Q356.0438,1173.5 355.4813,1173.5 Q354.7781,1173.5 354.1844,1173.7813 Q353.6063,1174.0625 353.1531,1174.6875 Q352.7,1175.3125 352.7,1176.1719 L352.7,1177.0938 Q352.7,1178.125 353.5438,1178.8125 Q354.3875,1179.5 355.8875,1179.5 Q356.7781,1179.5 357.4031,1179.2969 Q357.7625,1179.1875 358.1688,1178.8281 Q358.4344,1178.625 358.575,1178.5625 Q358.7156,1178.5 358.8875,1178.5 Q359.2156,1178.5 359.45,1178.7656 Q359.7,1179.0156 359.7,1179.375 Q359.7,1179.7188 359.3563,1180.125 Q358.8563,1180.7188 358.0594,1181.0469 Q357.0125,1181.5 355.7313,1181.5 Q354.2313,1181.5 353.0281,1180.9063 Q352.0594,1180.4375 351.3719,1179.4219 Q350.7,1178.4063 350.7,1177.2031 L350.7,1176.1094 Q350.7,1174.8594 351.2938,1173.7656 Q351.9031,1172.6719 352.95,1172.0938 Q354.0125,1171.5 355.2,1171.5 Q355.9188,1171.5 356.5438,1171.75 Q357.1688,1172 357.7,1172.5 Z " fill="#000000"/><text fill="#000000" font-family="sans-serif" font-size="12" lengthAdjust="spacing" textLength="27" x="375.3" y="1180.9102">Card</text><line style="stroke:#A80036;stroke-width:1.5;" x1="316.5" x2="429.5" y1="1192" y2="1192"/><text fill="#000000" font-family="sans-serif" font-size="11" lengthAdjust="spacing" textLength="58" x="321.5" y="1207.4189">+String rank</text><text fill="#000000" font-family="sans-serif" font-size="11" lengthAdjust="spacing" textLength="46" x="321.5" y="1221.2549">~int value</text><line style="stroke:#A80036;stroke-width:1.5;" x1="316.5" x2="429.5" y1="1227.6719" y2="1227.6719"/><text fill="#000000" font-family="sans-serif" font-size="11" lengthAdjust="spacing" textLength="58" x="321.5" y="1243.0908">~void print()</text><text fill="#000000" font-family="sans-serif" font-size="11" lengthAdjust="spacing" textLength="103" x="321.5" y="1256.9268">~String getFileName()</text><!--MD5=[fb3666cff0ddfc1479265ed242be2928]
class com.Slattery.Travis.Deck--><rect codeLine="104" fill="#FEFECE" filter="url(#frkrin0a149cm)" height="158.6875" id="com.Slattery.Travis.Deck" style="stroke:#A80036;stroke-width:1.5;" width="144" x="466" y="1132"/><ellipse cx="519.75" cy="1148" fill="#ADD1B2" rx="11" ry="11" style="stroke:#A80036;stroke-width:1.0;"/><path d="M521.75,1144.5 Q521.9531,1144 522.1875,1143.75 Q522.4219,1143.5 522.6875,1143.5 Q523.1563,1143.5 523.4531,1143.7813 Q523.75,1144.0625 523.75,1144.7188 L523.75,1146.2813 Q523.75,1146.9375 523.4688,1147.2188 Q523.1875,1147.5 522.75,1147.5 Q522.3594,1147.5 522.1094,1147.3281 Q521.8594,1147.1563 521.75,1146.7031 Q521.7031,1146.3906 521.5313,1146.2188 Q521.2188,1145.8906 520.6563,1145.7031 Q520.0938,1145.5 519.5313,1145.5 Q518.8281,1145.5 518.2344,1145.7813 Q517.6563,1146.0625 517.2031,1146.6875 Q516.75,1147.3125 516.75,1148.1719 L516.75,1149.0938 Q516.75,1150.125 517.5938,1150.8125 Q518.4375,1151.5 519.9375,1151.5 Q520.8281,1151.5 521.4531,1151.2969 Q521.8125,1151.1875 522.2188,1150.8281 Q522.4844,1150.625 522.625,1150.5625 Q522.7656,1150.5 522.9375,1150.5 Q523.2656,1150.5 523.5,1150.7656 Q523.75,1151.0156 523.75,1151.375 Q523.75,1151.7188 523.4063,1152.125 Q522.9063,1152.7188 522.1094,1153.0469 Q521.0625,1153.5 519.7813,1153.5 Q518.2813,1153.5 517.0781,1152.9063 Q516.1094,1152.4375 515.4219,1151.4219 Q514.75,1150.4063 514.75,1149.2031 L514.75,1148.1094 Q514.75,1146.8594 515.3438,1145.7656 Q515.9531,1144.6719 517,1144.0938 Q518.0625,1143.5 519.25,1143.5 Q519.9688,1143.5 520.5938,1143.75 Q521.2188,1144 521.75,1144.5 Z " fill="#000000"/><text fill="#000000" font-family="sans-serif" font-size="12" lengthAdjust="spacing" textLength="28" x="540.25" y="1152.9102">Deck</text><line style="stroke:#A80036;stroke-width:1.5;" x1="467" x2="609" y1="1164" y2="1164"/><text fill="#000000" font-family="sans-serif" font-size="11" lengthAdjust="spacing" textLength="132" x="472" y="1179.4189">+ArrayList&lt;Card&gt; myCards</text><line style="stroke:#A80036;stroke-width:1.5;" x1="467" x2="609" y1="1185.8359" y2="1185.8359"/><text fill="#000000" font-family="sans-serif" font-size="11" lengthAdjust="spacing" textLength="62" x="472" y="1201.2549">~void Shoe()</text><text fill="#000000" font-family="sans-serif" font-size="11" lengthAdjust="spacing" textLength="83" x="472" y="1215.0908">+Card takeCard()</text><text fill="#000000" font-family="sans-serif" font-size="11" lengthAdjust="spacing" textLength="71" x="472" y="1228.9268">~void shuffle()</text><text fill="#000000" font-family="sans-serif" font-size="11" lengthAdjust="spacing" textLength="94" x="472" y="1242.7627">+int getTotalValue()</text><text fill="#000000" font-family="sans-serif" font-size="11" lengthAdjust="spacing" textLength="90" x="472" y="1256.5986">+int getNumAces()</text><text fill="#000000" font-family="sans-serif" font-size="11" lengthAdjust="spacing" textLength="71" x="472" y="1270.4346">~int getCount()</text><text fill="#000000" font-family="sans-serif" font-size="11" lengthAdjust="spacing" textLength="82" x="472" y="1284.2705">+void printDeck()</text><!--MD5=[ced92cb47873ef93b12cb7ec5bb4222c]
class com.Slattery.Travis.JPanel--><rect fill="#FEFECE" filter="url(#frkrin0a149cm)" height="48" id="com.Slattery.Travis.JPanel" style="stroke:#A80036;stroke-width:1.5;" width="70" x="202" y="1187.5"/><ellipse cx="217" cy="1203.5" fill="#ADD1B2" rx="11" ry="11" style="stroke:#A80036;stroke-width:1.0;"/><path d="M219,1200 Q219.2031,1199.5 219.4375,1199.25 Q219.6719,1199 219.9375,1199 Q220.4063,1199 220.7031,1199.2813 Q221,1199.5625 221,1200.2188 L221,1201.7813 Q221,1202.4375 220.7188,1202.7188 Q220.4375,1203 220,1203 Q219.6094,1203 219.3594,1202.8281 Q219.1094,1202.6563 219,1202.2031 Q218.9531,1201.8906 218.7813,1201.7188 Q218.4688,1201.3906 217.9063,1201.2031 Q217.3438,1201 216.7813,1201 Q216.0781,1201 215.4844,1201.2813 Q214.9063,1201.5625 214.4531,1202.1875 Q214,1202.8125 214,1203.6719 L214,1204.5938 Q214,1205.625 214.8438,1206.3125 Q215.6875,1207 217.1875,1207 Q218.0781,1207 218.7031,1206.7969 Q219.0625,1206.6875 219.4688,1206.3281 Q219.7344,1206.125 219.875,1206.0625 Q220.0156,1206 220.1875,1206 Q220.5156,1206 220.75,1206.2656 Q221,1206.5156 221,1206.875 Q221,1207.2188 220.6563,1207.625 Q220.1563,1208.2188 219.3594,1208.5469 Q218.3125,1209 217.0313,1209 Q215.5313,1209 214.3281,1208.4063 Q213.3594,1207.9375 212.6719,1206.9219 Q212,1205.9063 212,1204.7031 L212,1203.6094 Q212,1202.3594 212.5938,1201.2656 Q213.2031,1200.1719 214.25,1199.5938 Q215.3125,1199 216.5,1199 Q217.2188,1199 217.8438,1199.25 Q218.4688,1199.5 219,1200 Z " fill="#000000"/><text fill="#000000" font-family="sans-serif" font-size="12" lengthAdjust="spacing" textLength="38" x="231" y="1208.4102">JPanel</text><line style="stroke:#A80036;stroke-width:1.5;" x1="203" x2="271" y1="1219.5" y2="1219.5"/><line style="stroke:#A80036;stroke-width:1.5;" x1="203" x2="271" y1="1227.5" y2="1227.5"/><!--MD5=[fc023cf51a16ef0f711ed65d6e774bce]
class com.Slattery.Travis.JFrame--><rect fill="#FEFECE" filter="url(#frkrin0a149cm)" height="48" id="com.Slattery.Travis.JFrame" style="stroke:#A80036;stroke-width:1.5;" width="74" x="32" y="595"/><ellipse cx="47" cy="611" fill="#ADD1B2" rx="11" ry="11" style="stroke:#A80036;stroke-width:1.0;"/><path d="M49,607.5 Q49.2031,607 49.4375,606.75 Q49.6719,606.5 49.9375,606.5 Q50.4063,606.5 50.7031,606.7813 Q51,607.0625 51,607.7188 L51,609.2813 Q51,609.9375 50.7188,610.2188 Q50.4375,610.5 50,610.5 Q49.6094,610.5 49.3594,610.3281 Q49.1094,610.1563 49,609.7031 Q48.9531,609.3906 48.7813,609.2188 Q48.4688,608.8906 47.9063,608.7031 Q47.3438,608.5 46.7813,608.5 Q46.0781,608.5 45.4844,608.7813 Q44.9063,609.0625 44.4531,609.6875 Q44,610.3125 44,611.1719 L44,612.0938 Q44,613.125 44.8438,613.8125 Q45.6875,614.5 47.1875,614.5 Q48.0781,614.5 48.7031,614.2969 Q49.0625,614.1875 49.4688,613.8281 Q49.7344,613.625 49.875,613.5625 Q50.0156,613.5 50.1875,613.5 Q50.5156,613.5 50.75,613.7656 Q51,614.0156 51,614.375 Q51,614.7188 50.6563,615.125 Q50.1563,615.7188 49.3594,616.0469 Q48.3125,616.5 47.0313,616.5 Q45.5313,616.5 44.3281,615.9063 Q43.3594,615.4375 42.6719,614.4219 Q42,613.4063 42,612.2031 L42,611.1094 Q42,609.8594 42.5938,608.7656 Q43.2031,607.6719 44.25,607.0938 Q45.3125,606.5 46.5,606.5 Q47.2188,606.5 47.8438,606.75 Q48.4688,607 49,607.5 Z " fill="#000000"/><text fill="#000000" font-family="sans-serif" font-size="12" lengthAdjust="spacing" textLength="42" x="61" y="615.9102">JFrame</text><line style="stroke:#A80036;stroke-width:1.5;" x1="33" x2="105" y1="627" y2="627"/><line style="stroke:#A80036;stroke-width:1.5;" x1="33" x2="105" y1="635" y2="635"/><!--MD5=[5a5af9b0547913863cbe0ddf55a9ab5e]
class java.io.Serializable--><rect fill="#FEFECE" filter="url(#frkrin0a149cm)" height="48" id="java.io.Serializable" style="stroke:#A80036;stroke-width:1.5;" width="96" x="165" y="42"/><ellipse cx="180" cy="58" fill="#ADD1B2" rx="11" ry="11" style="stroke:#A80036;stroke-width:1.0;"/><path d="M182,54.5 Q182.2031,54 182.4375,53.75 Q182.6719,53.5 182.9375,53.5 Q183.4063,53.5 183.7031,53.7813 Q184,54.0625 184,54.7188 L184,56.2813 Q184,56.9375 183.7188,57.2188 Q183.4375,57.5 183,57.5 Q182.6094,57.5 182.3594,57.3281 Q182.1094,57.1563 182,56.7031 Q181.9531,56.3906 181.7813,56.2188 Q181.4688,55.8906 180.9063,55.7031 Q180.3438,55.5 179.7813,55.5 Q179.0781,55.5 178.4844,55.7813 Q177.9063,56.0625 177.4531,56.6875 Q177,57.3125 177,58.1719 L177,59.0938 Q177,60.125 177.8438,60.8125 Q178.6875,61.5 180.1875,61.5 Q181.0781,61.5 181.7031,61.2969 Q182.0625,61.1875 182.4688,60.8281 Q182.7344,60.625 182.875,60.5625 Q183.0156,60.5 183.1875,60.5 Q183.5156,60.5 183.75,60.7656 Q184,61.0156 184,61.375 Q184,61.7188 183.6563,62.125 Q183.1563,62.7188 182.3594,63.0469 Q181.3125,63.5 180.0313,63.5 Q178.5313,63.5 177.3281,62.9063 Q176.3594,62.4375 175.6719,61.4219 Q175,60.4063 175,59.2031 L175,58.1094 Q175,56.8594 175.5938,55.7656 Q176.2031,54.6719 177.25,54.0938 Q178.3125,53.5 179.5,53.5 Q180.2188,53.5 180.8438,53.75 Q181.4688,54 182,54.5 Z " fill="#000000"/><text fill="#000000" font-family="sans-serif" font-size="12" lengthAdjust="spacing" textLength="64" x="194" y="62.9102">Serializable</text><line style="stroke:#A80036;stroke-width:1.5;" x1="166" x2="260" y1="74" y2="74"/><line style="stroke:#A80036;stroke-width:1.5;" x1="166" x2="260" y1="82" y2="82"/><!--MD5=[112d0e6a707d78c84269d49e67cf2fd9]
reverse link com.Slattery.Travis.JPanel to com.Slattery.Travis.CardArray--><path codeLine="116" d="M249.95,1255.37 C260.37,1289.89 274.62,1337.09 283.02,1364.88 " fill="none" id="com.Slattery.Travis.JPanel-backto-com.Slattery.Travis.CardArray" style="stroke:#A80036;stroke-width:1.0;"/><polygon fill="none" points="243.12,1256.97,244.04,1235.81,256.52,1252.93,243.12,1256.97" style="stroke:#A80036;stroke-width:1.0;"/><!--MD5=[64f389d4b7a49ab0247b100fc7565b90]
reverse link com.Slattery.Travis.JFrame to com.Slattery.Travis.GameWindow--><path codeLine="117" d="M70.98,663.24 C76.18,777.1 90.18,1083.11 94.62,1180.38 " fill="none" id="com.Slattery.Travis.JFrame-backto-com.Slattery.Travis.GameWindow" style="stroke:#A80036;stroke-width:1.0;"/><polygon fill="none" points="63.98,663.45,70.06,643.15,77.96,662.81,63.98,663.45" style="stroke:#A80036;stroke-width:1.0;"/><!--MD5=[fe39268e33cd10d78f1ce0879578199d]
reverse link com.Slattery.Travis.GameWindow to com.Slattery.Travis.GameWindow.ImagePanel--><path codeLine="118" d="M102.71,1257.79 C106.99,1286.71 112.48,1323.74 116.51,1350.92 " fill="none" id="com.Slattery.Travis.GameWindow-backto-com.Slattery.Travis.GameWindow.ImagePanel" style="stroke:#A80036;stroke-width:1.0;stroke-dasharray:7.0,7.0;"/><ellipse cx="101.6429" cy="1250.5835" fill="#FFFFFF" rx="8" ry="8" style="stroke:#A80036;stroke-width:1.0;"/><line style="stroke:#A80036;stroke-width:1.0;" x1="102.8159" x2="100.47" y1="1258.4971" y2="1242.67"/><line style="stroke:#A80036;stroke-width:1.0;" x1="93.7294" x2="109.5565" y1="1251.7565" y2="1249.4106"/><!--MD5=[147f3d209ee85dfe74a59a1aafdc7871]
reverse link com.Slattery.Travis.JPanel to com.Slattery.Travis.GameWindow.ImagePanel--><path codeLine="119" d="M210.68,1252.66 C191.34,1282.18 165.25,1321.99 146.38,1350.79 " fill="none" id="com.Slattery.Travis.JPanel-backto-com.Slattery.Travis.GameWindow.ImagePanel" style="stroke:#A80036;stroke-width:1.0;"/><polygon fill="none" points="204.91,1248.7,221.73,1235.81,216.62,1256.37,204.91,1248.7" style="stroke:#A80036;stroke-width:1.0;"/><!--MD5=[24b3f8aad4bf51b7ca25c0005fcababf]
reverse link java.io.Serializable to com.Slattery.Travis.Player--><path codeLine="120" d="M213,110.54 C213,188.77 213,356.24 213,477.44 " fill="none" id="java.io.Serializable-backto-com.Slattery.Travis.Player" style="stroke:#A80036;stroke-width:1.0;stroke-dasharray:7.0,7.0;"/><polygon fill="none" points="206,110.32,213,90.32,220,110.32,206,110.32" style="stroke:#A80036;stroke-width:1.0;"/><!--MD5=[ec62013ca1d62a4b21fd94266c9e529e]
link com.Slattery.Travis.Main to com.Slattery.Travis.BlackJackGUI--><!--MD5=[9d684f1e1b972437bfe0526e5bbee34e]
link com.Slattery.Travis.Main to com.Slattery.Travis.Card--><!--MD5=[f24cf8fae09f1bd5de43daef7787bfe2]
link com.Slattery.Travis.Card to com.Slattery.Travis.Deck--><!--MD5=[09f34ddb55ae14b9258b6217de137386]
@startuml
skinparam classAttributeIconSize 0
class com.Slattery.Travis.CardArray {
}
class com.Slattery.Travis.Main {
+ {static} void main(String[])
+ void setVisible()
}
class com.Slattery.Travis.GameWindow {
- JPanel backGround
}
class com.Slattery.Travis.GameWindow.ImagePanel {
- Image img
+ void paintComponent(Graphics)
}
class com.Slattery.Travis.Player {
~ ArrayList<Player> players
- String username
- double balance
- int wonHands
+ void setUsername(String)
~ String getName()
~ String getPassword()
+ void setPassword(String)
~ double getBalance()
~ void setBalance(double)
~ int getWonHands()
~ void setWonHands(int)
~ int getTieHands()
~ void setTieHands(int)
~ int getHandsplayed()
~ void setHandsplayed(int)
+ String toString()
}
class com.Slattery.Travis.BlackJackGUI {
~ {static} JFrame frame
+ {static} Deck deck
+ {static} Deck dealerCards
+ {static} Deck playerCards
- {static} CardArray dealerCardPanel
- {static} Card dealerHiddenCard
+ {static} double balance
- {static} double sBalance
+ {static} int betAmount
- {static} int roundCount
+ {static} int wonHands
+ {static} int tieHands
- {static} int handsplayed
+ {static} String pname
- {static} JTextField balanceField
- {static} JButton startButton
- {static} JButton endButton
+ {static} JTextField betAmountField
- {static} JButton dealButton
+ {static} JLabel balanceLabel
- {static} JLabel dLabel
- {static} JLabel pLabel
- {static} JButton hitButton
- {static} JButton stayButton
- {static} JButton dblButton
- {static} JLabel amountBet
- {static} JButton loginButton
- {static} JButton saveButton
- {static} JTextField usernameField
- {static} JTextField passwordField
- {static} JLabel lblBetAmountDesc
+ {static} JLabel gameInfo
- {static} JButton continueButton
- {static} JLabel shuffleInfo
- {static} JLabel statsInfo
- {static} JLabel newUserInfo
- {static} JButton statsButton
- {static} JButton returnButton
- {static} File file
- {static} ArrayList<Player> players
- GameTemplate gameTemplate
+ {static} double getBal()
+ {static} double getBetAmount()
+ void loadGame()
- {static} boolean validAmount(String)
- void loadGuiObjects()
- void showBetGui()
- void deal()
- void hit()
- void dblBet()
- void stand()
- boolean gameOutcomes()
- {static} void gameOver()
+ void continueGame()
- void newGame()
- {static} void updateCardPanels()
+ {static} int heightFromWidth(int)
- {static} void actionPerformed(ActionEvent)
- {static} void stats()
- {static} void removeStats()
- {static} void saveFile(File)
- {static} void loadFile(File)
}
class com.Slattery.Travis.Card {
+ String rank
~ int value
~ void print()
~ String getFileName()
}
class com.Slattery.Travis.Deck {
+ ArrayList<Card> myCards
~ void Shoe()
+ Card takeCard()
~ void shuffle()
+ int getTotalValue()
+ int getNumAces()
~ int getCount()
+ void printDeck()
}


com.Slattery.Travis.JPanel <|- - com.Slattery.Travis.CardArray
com.Slattery.Travis.JFrame <|- - com.Slattery.Travis.GameWindow
com.Slattery.Travis.GameWindow +.. com.Slattery.Travis.GameWindow.ImagePanel
com.Slattery.Travis.JPanel <|- - com.Slattery.Travis.GameWindow.ImagePanel
java.io.Serializable <|.. com.Slattery.Travis.Player
@enduml

PlantUML version 1.2021.15(Tue Nov 30 16:45:34 GMT 2021)
(GPL source distribution)
Java Runtime: OpenJDK Runtime Environment
JVM: OpenJDK 64-Bit Server VM
Default Encoding: Cp1252
Language: en
Country: IE
--></g></svg>